<?xml version="1.0" encoding="iso-8859-1"?>
<!-- Uploaded to: SVG Repo, www.svgrepo.com, Generator: SVG Repo Mixer Tools -->
<svg fill="#000000" height="800px" width="800px" version="1.1" id="Layer_1" xmlns="http://www.w3.org/2000/svg" xmlns:xlink="http://www.w3.org/1999/xlink" 
	 viewBox="0 0 512.64 512.64" xml:space="preserve">
<g transform="translate(1)">
	<g>
		<g>
			<path d="M500.671,31.36l-20.48-20.48c-13.653-14.507-36.693-14.507-51.2,0L282.217,157.653c-3.108,1.554-4.785,4.524-5.063,7.62
				c-0.102,0.892-0.053,1.793,0.145,2.674c0.748,6.964,1.09,17.427-3.616,22.133c-5.12,4.267-17.92,3.413-23.893,3.413
				c-3.413,0-6.827,1.707-8.533,5.12L219.071,220.8c-3.413,3.413-3.413,8.533,0,11.947l12.8,12.8L51.817,425.6l-35.84,23.893
				c-1.707,0.853-2.56,2.56-3.413,4.267L0.617,489.6c-1.707,2.56-0.853,5.973,1.707,8.533l11.947,11.947
				c1.707,1.707,3.413,2.56,5.973,2.56c0.853,0,1.707,0,2.56,0l36.693-11.947c1.707-0.853,3.413-1.707,4.267-3.413l23.893-35.84
				l180.053-180.053l11.947,11.947c1.707,1.707,3.413,2.56,5.973,2.56s4.267-0.853,5.973-3.413l23.893-23.893
				c1.707-1.707,2.56-3.413,2.56-5.973c0-0.175-0.014-0.337-0.022-0.505c0.004-0.116,0.022-0.232,0.022-0.348
				c-0.853-6.827-1.707-18.773,3.413-23.893c4.391-3.659,14.419-3.552,20.957-3.448c1.086,0.586,2.289,0.888,3.79,0.888
				c1.707,0,4.267-0.853,5.973-2.56L500.671,82.56c6.827-6.827,10.24-16.213,10.24-25.6S507.497,38.187,500.671,31.36z
				 M50.964,485.333l-28.16,8.533l-4.267-4.267l8.533-28.16l28.16-18.773l14.507,14.507L50.964,485.333z M80.831,444.373
				l-11.947-11.947l174.508-175.359l12.372,12.372L80.831,444.373z M285.631,274.56l-47.787-47.787l11.947-11.947l47.787,47.787
				L285.631,274.56z M309.524,226.773c-4.267,4.267-6.827,10.24-7.68,16.213l-32.427-32.427c5.973-0.853,11.947-3.413,16.213-7.68
				c4.267-4.267,6.827-10.24,7.68-16.213l32.427,32.427C319.764,219.947,313.791,222.507,309.524,226.773z M489.577,71.467
				L345.793,213.549l-47.787-47.787L441.791,23.68c7.68-7.68,19.627-7.68,27.307,0l20.48,20.48
				c4.267,3.413,5.973,8.533,5.973,13.653S492.991,68.053,489.577,71.467z"/>
			<path d="M454.591,45.867L335.124,165.333c-3.413,3.413-3.413,8.533,0,11.947c1.707,1.707,3.413,2.56,5.973,2.56
				s4.267-0.853,5.973-2.56L466.537,57.813c3.413-3.413,3.413-8.533,0-11.947S458.004,42.453,454.591,45.867z"/>
		</g>
	</g>
</g>
</svg>