<?xml version="1.0" encoding="iso-8859-1"?>
<!-- Uploaded to: SVG Repo, www.svgrepo.com, Generator: SVG Repo Mixer Tools -->
<svg fill="#000000" height="800px" width="800px" version="1.1" id="Layer_1" xmlns="http://www.w3.org/2000/svg" xmlns:xlink="http://www.w3.org/1999/xlink" 
	 viewBox="0 0 512 512" xml:space="preserve">
<g transform="translate(1)">
	<g>
		<g>
			<path d="M493.926,91.307c0-23.04-10.24-45.227-28.16-63.147C447.846,10.24,424.806,0,399.206,0c-25.6,0-48.64,9.387-66.56,26.453
				L46.779,312.32c-5.12,5.973-7.68,14.507-6.827,22.187c0.257,2.315,0.908,4.55,1.87,6.663l-23.204,23.204
				c-2.56,2.56-3.413,6.827-1.707,9.387l60.587,133.12c0.853,2.56,3.413,4.267,5.973,5.12c0.853,0,0.853,0,1.707,0
				c2.56,0,4.267-0.853,5.973-2.56l88.43-89.241c3.32,2.267,7.36,3.055,11.41,3.055c5.973,0,12.8-2.56,17.92-6.827l256-256.853
				C484.539,139.947,494.779,116.053,493.926,91.307z M87.739,488.96L34.833,372.907l19.038-19.038l17.421,9.181
				c0.492,0.339,1.005,0.61,1.551,0.818l26.932,14.194l1.789,0.979c1.246,1.204,2.51,1.957,4.118,2.252l58.003,31.721L87.739,488.96
				z M453.819,146.773L196.966,403.627c-2.56,2.56-6.827,3.413-10.24,1.707l-1.047-0.559c-0.75-1.036-1.858-1.947-3.219-2.854
				l-59.945-32.215l29.225-29.225c3.413-3.413,3.413-8.533,0-11.947c-3.413-3.413-8.533-3.413-11.947,0l-32.819,32.819l-16.096-8.65
				l23.316-23.316c3.413-3.413,3.413-8.533,0-11.947c-3.413-3.413-8.533-3.413-11.947,0l-26.91,26.91l-18.316-9.844
				c-0.169-0.085-0.343-0.158-0.516-0.231c-0.216-0.672-0.337-1.44-0.337-2.329c0-3.413,0.853-5.973,2.56-7.68L343.739,39.253
				c14.507-14.507,33.28-22.187,53.76-22.187c0.853,0,0.853,0,1.707,0c20.48,0,40.107,8.533,55.467,22.187
				c14.507,14.507,23.04,33.28,23.04,52.053C477.713,111.787,470.033,130.56,453.819,146.773z"/>
			<path d="M363.366,57.173c-10.24,9.387-15.36,22.187-15.36,35.84c0,13.653,5.973,26.453,15.36,35.84
				c9.387,10.24,23.04,15.36,35.84,15.36c12.8,0,25.6-5.12,36.693-15.36c10.24-9.387,15.36-22.187,15.36-35.84
				c0-13.653-5.973-26.453-15.36-35.84C415.419,37.547,382.993,37.547,363.366,57.173z M423.953,116.907
				c-13.653,13.653-34.987,13.653-48.64,0c-6.827-5.973-10.24-14.507-10.24-23.893c0-8.533,3.413-17.067,10.24-23.893
				s15.36-10.24,23.893-10.24c8.533,0,17.067,3.413,24.747,10.24c6.827,5.973,10.24,14.507,10.24,23.893
				C434.193,101.547,430.779,110.08,423.953,116.907z"/>
		</g>
	</g>
</g>
</svg>