<?xml version="1.0" encoding="iso-8859-1"?>
<!-- Uploaded to: SVG Repo, www.svgrepo.com, Generator: SVG Repo Mixer Tools -->
<svg fill="#000000" height="800px" width="800px" version="1.1" id="Layer_1" xmlns="http://www.w3.org/2000/svg" xmlns:xlink="http://www.w3.org/1999/xlink" 
	 viewBox="0 0 512 512" xml:space="preserve">
<g>
	<g>
		<path d="M273.064,102.4h-25.6c-2.355,0-4.267,1.911-4.267,4.267V217.6c0,2.355,1.911,4.267,4.267,4.267h25.6
			c2.355,0,4.267-1.911,4.267-4.267V106.667C277.331,104.311,275.42,102.4,273.064,102.4z"/>
	</g>
</g>
<g>
	<g>
		<path d="M311.302,484.727l-16.905-40.994V275.081c0-1.323-0.307-2.628-0.905-3.814l-14.985-29.969
			c-0.717-1.451-2.202-2.364-3.814-2.364h-28.86c-1.613,0-3.098,0.913-3.814,2.355l-14.984,29.969
			c-0.597,1.195-0.905,2.5-0.905,3.823v168.653l-16.888,40.994c-0.375,1.86-0.111,3.789,0.734,5.487l8.533,17.067
			c1.442,2.893,4.395,4.719,7.629,4.719h68.267c3.234,0,6.187-1.826,7.629-4.719l8.533-17.067
			C311.413,488.516,311.678,486.588,311.302,484.727z"/>
	</g>
</g>
<g>
	<g>
		<path d="M362.673,0h-25.6c-0.905,0.145-1.801,0.29-2.705,0.435l-24.235,8.081c-7.006-0.179-10.112-1.741-13.995-3.695
			C291.872,2.671,286.547,0,277.34,0c-75.366,0-125.09,36.813-136.422,101.009c-0.478,2.697,0.452,5.495,2.389,7.424l17.067,17.067
			c2.022,2.022,4.966,2.782,7.782,2.21c2.807-0.563,5.18-2.628,6.255-5.282c9.199-22.758,17.92-44.331,47.138-52.787l5.487,10.974
			c1.451,2.893,4.403,4.719,7.637,4.719h47.403c3.012,0,5.794-1.587,7.296-4.198c4.207-7.322,11.895-12.39,20.821-12.834
			l24.183,8.064c0.905,0.145,1.792,0.29,2.697,0.435h25.6c4.71,0,8.533-3.823,8.533-8.533V8.533C371.206,3.823,367.383,0,362.673,0z
			"/>
	</g>
</g>
</svg>