<?xml version="1.0" encoding="iso-8859-1"?>
<!-- Uploaded to: SVG Repo, www.svgrepo.com, Generator: SVG Repo Mixer Tools -->
<svg fill="#000000" height="800px" width="800px" version="1.1" id="Layer_1" xmlns="http://www.w3.org/2000/svg" xmlns:xlink="http://www.w3.org/1999/xlink" 
	 viewBox="0 0 512 512" xml:space="preserve">
<g transform="translate(1 1)">
	<g>
		<path d="M365.933,459.8h-17.067V7.533c0-5.12-3.413-8.533-8.533-8.533H306.2c-5.12,0-8.533,3.413-8.533,8.533V50.2h-85.333V7.533
			c0-5.12-3.413-8.533-8.533-8.533h-34.133c-5.12,0-8.533,3.413-8.533,8.533V459.8h-17.067c-5.12,0-8.533,3.413-8.533,8.533v34.133
			c0,5.12,3.413,8.533,8.533,8.533h221.867c5.12,0,8.533-3.413,8.533-8.533v-34.133C374.467,463.213,371.053,459.8,365.933,459.8z
			 M314.733,16.067H331.8V459.8h-17.067v-59.733v-34.133v-68.267v-34.133v-68.267v-34.133V92.867V58.733V16.067z M212.333,459.8
			v-51.2h85.333v51.2H212.333z M212.333,272.067h85.333v17.067h-85.333V272.067z M297.667,255h-85.333v-51.2h85.333V255z
			 M297.667,186.733h-85.333v-17.067h85.333V186.733z M212.333,306.2h85.333v51.2h-85.333V306.2z M212.333,374.467h85.333v17.067
			h-85.333V374.467z M297.667,152.6h-85.333v-51.2h85.333V152.6z M297.667,67.267v17.067h-85.333V67.267H297.667z M178.2,16.067
			h17.067v42.667v34.133v68.267v34.133v68.267v34.133v68.267v34.133V459.8H178.2V16.067z M357.4,493.933H152.6v-17.067h17.067H203.8
			h102.4h34.133H357.4V493.933z"/>
	</g>
</g>
</svg>