<?xml version="1.0" encoding="iso-8859-1"?>
<!-- Uploaded to: SVG Repo, www.svgrepo.com, Generator: SVG Repo Mixer Tools -->
<svg fill="#000000" height="800px" width="800px" version="1.1" id="Layer_1" xmlns="http://www.w3.org/2000/svg" xmlns:xlink="http://www.w3.org/1999/xlink" 
	 viewBox="0 0 512 512" xml:space="preserve">
<g transform="translate(1 1)">
	<g>
		<path d="M347.496,247.32c-8.533-17.067-18.773-31.573-29.013-43.52l29.013-28.16c1.707-1.707,2.56-4.267,2.56-6.827
			s-1.707-4.267-3.413-5.973l-34.133-25.6c-1.75-1.75-4.299-2.302-6.827-1.659v-6.021l23.893-31.573
			c2.56-2.56,2.56-6.827,0.853-9.387l-51.2-85.333C277.523,0.707,274.963-1,271.55-1h-17.067h-17.067
			c-2.56,0-5.973,1.707-6.827,4.267L179.39,88.6c-2.56,2.56-1.707,6.827,0,10.24l23.893,31.573v5
			c-1.451,0.215-2.924,0.82-4.267,1.826l-34.133,25.6c-1.707,0.853-3.413,3.413-3.413,5.973s0.853,5.12,2.56,6.827l28.16,28.16
			c-13.653,15.36-26.453,35.84-38.4,61.44c-27.307,58.88-23.04,139.947,9.387,197.12l1.707,2.56
			c8.533,14.507,15.36,26.453,23.04,35.84c5.12,5.973,12.8,10.24,20.48,10.24c0.853,0,0.853,0,1.707,0
			c6.827,0,14.507-2.56,19.627-9.387c9.387-9.387,10.24-23.893,3.413-34.987c-29.867-46.08-37.547-69.973-37.547-119.467
			c0-36.644,38.462-93.938,56.168-117.878c0.896,0.071,1.798,0.118,2.712,0.118c1.257,0,2.497-0.074,3.719-0.208
			c17.37,23.347,56.868,81.688,56.868,118.821c0,48.64-7.68,73.387-38.4,119.467c-7.68,11.093-5.973,25.6,3.413,34.987
			c5.12,5.973,11.947,8.533,19.627,8.533c0,0,0.853,0,0.853,0c8.533,0,15.36-4.267,20.48-10.24c4.267-5.973,10.24-12.8,15.36-20.48
			C382.483,412.867,386.75,320.707,347.496,247.32z M254.483,75.8h8.533v17.067h-8.533h-8.533V75.8H254.483z M259.603,211.48
			c-0.735,0-1.468,0.216-2.163,0.577c-0.963,0.17-1.948,0.276-2.957,0.276c-0.031,0-0.06-0.004-0.091-0.005
			c-1.003-0.741-2.159-1.314-3.323-1.702c-8.358-1.672-13.429-8.258-13.634-15.744c0.049-2.179,0.5-4.262,1.301-6.17
			c0.934-2.061,2.307-4.005,3.922-5.707c0.363-0.351,0.739-0.688,1.132-1.006c0.038-0.029,0.078-0.056,0.114-0.085
			c2.485-1.975,5.519-3.284,8.834-3.625c0.004,0,0.007-0.001,0.011-0.001c0.57-0.058,1.148-0.088,1.733-0.088
			c0.585,0,1.163,0.03,1.733,0.088c0.004,0,0.007,0.001,0.011,0.001c8.575,0.881,15.323,8.179,15.323,16.977
			c0,7.374-4.748,13.676-11.332,16.048C260.013,211.369,259.813,211.433,259.603,211.48z M312.51,92.013l-22.187,29.867
			c-0.853,1.707-1.707,3.413-1.707,5.12v19.627l-19.627,17.067c-2.56-0.853-4.267-0.853-5.973-1.707v-52.053
			c9.387,0,17.067-7.68,17.067-17.067V75.8c0-9.387-7.68-17.067-17.067-17.067V16.067h4.267L312.51,92.013z M196.456,92.013
			l46.08-75.947h3.413v42.667c-9.387,0-17.067,7.68-17.067,17.067v17.067c0,9.387,7.68,17.067,17.067,17.067v52.288
			c-1.638,0.426-3.23,0.971-4.765,1.626l-20.835-17.363V127c0-1.707-0.853-3.413-1.707-5.12L196.456,92.013z M178.536,348.867
			c0,52.907,8.533,80.213,40.107,128c2.56,4.267,1.707,10.24-1.707,13.653c-1.707,2.56-4.267,3.413-7.68,3.413
			s-5.973-1.707-7.68-3.413c-6.827-8.533-12.8-19.627-21.333-34.133l-1.707-2.56c-30.72-52.907-34.133-128-9.387-181.76
			c12.8-26.453,26.453-47.787,40.96-62.293c3.413-3.413,3.413-8.533,0-11.947l-27.307-27.307l20.48-15.36l1.391,1.143
			c0.594,0.774,1.424,1.483,2.55,2.095l4.421,3.632l15.379,12.976c-0.268,0.38-0.529,0.764-0.783,1.151
			c-2.645,3.888-4.501,8.346-5.356,13.14c-0.03,0.164-0.061,0.328-0.089,0.493c-0.042,0.26-0.079,0.522-0.116,0.784
			c-0.04,0.285-0.077,0.57-0.11,0.858c-0.024,0.215-0.048,0.431-0.068,0.648c-0.033,0.351-0.059,0.705-0.081,1.06
			c-0.011,0.173-0.024,0.345-0.033,0.519c-0.025,0.532-0.041,1.068-0.041,1.609c0,0.662,0.024,1.319,0.062,1.972
			c0.016,0.294,0.044,0.585,0.067,0.877c0.027,0.322,0.055,0.643,0.091,0.962c0.045,0.409,0.097,0.815,0.156,1.219
			c0.018,0.124,0.039,0.246,0.059,0.37c0.69,4.391,2.21,8.466,4.419,12.081c0.054,0.09,0.106,0.18,0.161,0.269
			c0.143,0.228,0.288,0.454,0.436,0.679c2.546,3.939,5.873,7.331,9.766,9.941C215.06,253.554,178.536,309.703,178.536,348.867z
			 M322.75,471.747c-5.12,6.827-10.24,13.653-14.507,18.773c-1.707,2.56-4.267,4.267-7.68,4.267c-2.56,0-5.12-0.853-7.68-3.413
			c-4.267-3.413-4.267-9.387-1.707-13.653c32.427-49.493,40.96-76.8,40.96-128.853c0-39.253-36.693-95.573-58.027-125.44
			c8.533-5.973,14.507-17.067,15.36-27.307c0-5.068-1.413-10.135-3.886-14.854c-0.782-1.724-1.698-3.377-2.744-4.936l24.55-20.317
			l20.48,15.36l-27.307,27.307c-3.413,3.413-3.413,8.533,0,11.947c11.093,11.093,22.187,26.453,32.427,45.227
			C369.683,324.12,365.417,408.6,322.75,471.747z"/>
	</g>
</g>
</svg>