<?xml version="1.0" encoding="iso-8859-1"?>
<!-- Uploaded to: SVG Repo, www.svgrepo.com, Generator: SVG Repo Mixer Tools -->
<svg fill="#000000" height="800px" width="800px" version="1.1" id="Layer_1" xmlns="http://www.w3.org/2000/svg" xmlns:xlink="http://www.w3.org/1999/xlink" 
	 viewBox="0 0 512 512" xml:space="preserve">
<g transform="translate(1 1)">
	<g>
		<g>
			<path d="M109.933-1H92.867C68.973-1,50.2,17.773,50.2,41.667V178.2c0,3.57,1.663,6.305,4.403,7.637
				c4.572,3.815,12.664,11.622,12.664,17.963c0,5.836-6.853,12.912-11.51,17.51c-3.42,1.073-5.557,4.044-5.557,8.09v34.133
				c0,5.12,3.413,8.533,8.533,8.533H75.8v51.2v42.667c0,0.853,0,0.853,0,1.707l6.827,34.133c1.707,9.387,9.387,15.36,18.773,15.36
				s17.067-5.973,18.773-15.36L127,367.64c0-0.853,0-0.853,0-1.707v-42.667v-51.2h17.067c5.12,0,8.533-3.413,8.533-8.533V229.4
				c0-3.57-1.663-6.305-4.403-7.637c-4.572-3.815-12.664-11.622-12.664-17.963c0-5.836,6.853-12.912,11.51-17.51
				c3.42-1.073,5.557-4.044,5.557-8.09V41.667C152.6,17.773,133.827-1,109.933-1z M67.267,41.667c0-14.507,11.947-25.6,25.6-25.6
				h17.067c14.507,0,25.6,11.093,25.6,25.6v128H67.267V41.667z M124.44,220.867H78.36c3.413-5.12,5.973-11.093,5.973-17.067
				c0-5.973-2.56-11.947-5.973-17.067h46.08c-3.413,5.12-5.973,11.093-5.973,17.067C118.467,209.773,121.027,215.747,124.44,220.867
				z M109.933,365.08l-6.827,33.28c0,1.707-3.413,1.707-3.413,0l-6.827-33.28V331.8h17.067V365.08z M109.933,314.733H92.867v-42.667
				h17.067V314.733z M135.533,255h-17.067H84.333H67.267v-17.067h68.267V255z"/>
			<path d="M101.4,33.133c-5.12,0-8.533,3.413-8.533,8.533v102.4c0,5.12,3.413,8.533,8.533,8.533s8.533-3.413,8.533-8.533v-102.4
				C109.933,36.547,106.52,33.133,101.4,33.133z"/>
			<path d="M263.533-1h-17.067C222.573-1,203.8,17.773,203.8,41.667V178.2c0,3.57,1.663,6.305,4.403,7.637
				c4.572,3.815,12.664,11.622,12.664,17.963c0,5.836-6.853,12.912-11.51,17.51c-3.42,1.073-5.557,4.044-5.557,8.09v34.133
				c0,5.12,3.413,8.533,8.533,8.533H229.4v143.36l-7.68,15.36c-0.853,0.853-0.853,1.707-0.853,3.413v34.133
				c0,5.12,3.413,8.533,8.533,8.533h51.2c5.12,0,8.533-3.413,8.533-8.533V434.2c0-1.707,0-2.56-0.853-3.413l-7.68-15.36v-143.36
				h17.067c4.267,0,8.533-3.413,8.533-8.533V229.4c0-4.045-2.137-7.017-5.557-8.09c-4.657-4.599-11.51-11.674-11.51-17.51
				c0-5.913,7.037-13.1,11.695-17.693c2.987-1.207,5.372-4.079,5.372-7.907V41.667C306.2,17.773,287.427-1,263.533-1z
				 M220.867,41.667c0-14.507,11.093-25.6,25.6-25.6h17.067c14.507,0,25.6,11.093,25.6,25.6v128h-68.267V41.667z M278.04,220.867
				h-46.08c3.413-5.12,5.973-11.093,5.973-17.067c0-5.973-2.56-11.947-5.973-17.067h46.08c-3.413,5.12-5.973,11.093-5.973,17.067
				C272.067,209.773,274.627,215.747,278.04,220.867z M272.067,459.8h-34.133v-23.893l5.12-10.24h23.893l5.12,10.24V459.8z
				 M263.533,408.6h-17.067V272.067h17.067V408.6z M289.133,255h-17.067h-34.133h-17.067v-17.067h68.267V255z"/>
			<path d="M255,33.133c-5.12,0-8.533,3.413-8.533,8.533v102.4c0,5.12,3.413,8.533,8.533,8.533c5.12,0,8.533-3.413,8.533-8.533
				v-102.4C263.533,36.547,260.12,33.133,255,33.133z"/>
			<path d="M456.387,185.027c0.021-0.021,0.036-0.044,0.057-0.064c1.975-1.494,3.357-3.851,3.357-6.762V41.667
				C459.8,17.773,441.027-1,417.133-1h-17.067C376.173-1,357.4,17.773,357.4,41.667V178.2c0,3.57,1.663,6.305,4.402,7.637
				c4.572,3.815,12.664,11.622,12.664,17.963c0,5.836-6.854,12.912-11.51,17.51c-3.42,1.073-5.556,4.044-5.556,8.09v34.133
				c0,5.12,3.413,8.533,8.533,8.533H383v143.36l-8.533,42.667c0,1.707,0,3.413,0.853,5.12l17.067,42.667
				c0.853,3.413,4.267,5.12,7.68,5.12h17.067c3.413,0,6.827-1.707,7.68-5.12l17.067-42.667c0.853-1.707,0.853-3.413,0.853-5.12
				l-8.533-42.667v-143.36h17.067c4.267,0,8.533-3.413,8.533-8.533V229.4c0-4.045-2.137-7.017-5.557-8.09
				c-4.657-4.599-11.51-11.674-11.51-17.51C442.733,196.973,452.12,188.44,456.387,185.027z M431.64,220.867h-46.08
				c3.413-5.12,5.973-11.093,5.973-17.067c0-5.973-2.56-11.947-5.973-17.067h46.08c-3.413,5.12-5.973,11.093-5.973,17.067
				C425.667,209.773,428.227,215.747,431.64,220.867z M374.467,41.667c0-14.507,11.093-25.6,25.6-25.6h17.067
				c14.507,0,25.6,11.093,25.6,25.6v128h-68.267V41.667z M411.16,493.933h-5.12l-14.507-34.987l6.827-33.28h20.48l5.973,33.28
				L411.16,493.933z M417.133,408.6h-17.067V272.067h17.067V408.6z M442.733,255h-17.067h-34.133h-17.067v-17.067h68.267V255z"/>
			<path d="M408.6,33.133c-5.12,0-8.533,3.413-8.533,8.533v102.4c0,5.12,3.413,8.533,8.533,8.533c5.12,0,8.533-3.413,8.533-8.533
				v-102.4C417.133,36.547,413.72,33.133,408.6,33.133z"/>
		</g>
	</g>
</g>
</svg>