<?xml version="1.0" encoding="iso-8859-1"?>
<!-- Uploaded to: SVG Repo, www.svgrepo.com, Generator: SVG Repo Mixer Tools -->
<svg fill="#000000" height="800px" width="800px" version="1.1" id="Layer_1" xmlns="http://www.w3.org/2000/svg" xmlns:xlink="http://www.w3.org/1999/xlink" 
	 viewBox="0 0 503.607 503.607" xml:space="preserve">
<g transform="translate(1 1)">
	<g>
		<g>
			<path d="M494.213,380.902h-75.541v-16.787c0-15.948-9.233-25.18-25.18-25.18h-8.393v-92.328
				c0-104.918-75.541-184.656-176.262-184.656S32.574,141.689,32.574,246.607v92.328H24.18c-15.948,0-25.18,9.233-25.18,25.18
				v50.361c0,15.948,9.233,25.18,25.18,25.18h369.311c15.948,0,25.18-9.233,25.18-25.18v-16.787h67.148v25.18
				c0,5.036,3.357,8.393,8.393,8.393c5.036,0,8.393-3.357,8.393-8.393v-33.574C502.607,384.259,499.249,380.902,494.213,380.902z
				 M401.885,414.475c0,5.875-2.518,8.393-8.393,8.393H24.18c-5.875,0-8.393-2.518-8.393-8.393v-50.361
				c0-5.875,2.518-8.393,8.393-8.393h16.787c5.036,0,8.393-3.357,8.393-8.393V246.607c0-95.685,68.826-167.869,159.475-167.869
				s159.475,72.184,159.475,167.869v100.721c0,5.036,3.357,8.393,8.393,8.393h16.787c5.875,0,8.393,2.518,8.393,8.393V414.475z"/>
			<path d="M208.836,103.918c-73.862,0-134.295,60.433-134.295,134.295c0,73.862,60.433,134.295,134.295,134.295
				s134.295-60.433,134.295-134.295C343.131,164.351,282.698,103.918,208.836,103.918z M208.836,355.721
				c-64.63,0-117.508-52.879-117.508-117.508s52.879-117.508,117.508-117.508s117.508,52.879,117.508,117.508
				S273.466,355.721,208.836,355.721z"/>
			<path d="M208.836,145.885c-5.036,0-8.393,3.357-8.393,8.393s3.357,8.393,8.393,8.393c41.967,0,75.541,33.574,75.541,75.541
				c0,5.036,3.357,8.393,8.393,8.393c5.036,0,8.393-3.357,8.393-8.393C301.164,187.013,260.036,145.885,208.836,145.885z"/>
			<path d="M208.836,313.754c-41.967,0-75.541-33.574-75.541-75.541c0-5.036-3.357-8.393-8.393-8.393s-8.393,3.357-8.393,8.393
				c0,51.2,41.128,92.328,92.328,92.328c5.036,0,8.393-3.357,8.393-8.393S213.872,313.754,208.836,313.754z"/>
		</g>
	</g>
</g>
</svg>
