<?xml version="1.0" encoding="iso-8859-1"?>
<!-- Uploaded to: SVG Repo, www.svgrepo.com, Generator: SVG Repo Mixer Tools -->
<svg fill="#000000" height="800px" width="800px" version="1.1" id="Layer_1" xmlns="http://www.w3.org/2000/svg" xmlns:xlink="http://www.w3.org/1999/xlink" 
	 viewBox="0 0 512 512" xml:space="preserve">
<g transform="translate(1 1)">
	<g>
		<g>
			<path d="M509.293,238.787c-9.387-62.293-62.293-107.52-125.44-107.52h-9.387V71.533c0-5.12-3.413-8.533-8.533-8.533h-25.6v-8.533
				c0-5.12-3.413-8.533-8.533-8.533H178.2c-5.12,0-8.533,3.413-8.533,8.533V63h-25.6c-5.12,0-8.533,3.413-8.533,8.533v59.733h-9.387
				c-63.147,0-116.053,45.227-125.44,107.52L-1,249.027c0,0.853,0,0.853,0,1.707c0,9.387,7.68,17.067,17.067,17.067h0.853v149.565
				c-0.55,1.169-0.853,2.525-0.853,4.035v17.067c0,13.653,11.093,25.6,25.6,25.6h0.853H75.8h358.4h34.133
				c0.453,0,0.903-0.012,1.35-0.035c13.84-0.714,24.277-12.339,25.104-25.565v-170.71c8.992-0.451,16.213-7.924,16.213-17.023
				c0-0.853,0-0.853,0-1.707L509.293,238.787z M186.733,63h136.533v8.533v8.533H186.733v-8.533V63z M152.6,80.067h17.067V88.6
				c0,5.12,3.413,8.533,8.533,8.533h153.6c5.12,0,8.533-3.413,8.533-8.533v-8.533H357.4v51.2H152.6V80.067z M17.773,241.347
				c8.533-53.76,53.76-93.013,108.373-93.013h17.92h221.867h17.92c54.613,0,99.84,39.253,108.373,93.013l1.707,9.387h-7.68h-86.187
				v-17.067c0-14.507-11.093-25.6-25.6-25.6H357.4c-14.507,0-25.6,11.093-25.6,25.6v17.067H178.2v-17.067
				c0-14.507-11.093-25.6-25.6-25.6h-17.067c-14.507,0-25.6,11.093-25.6,25.6v17.067h-84.48h-9.387L17.773,241.347z M349.72,284.867
				v-25.6c0-1.51-0.304-2.865-0.853-4.035v-21.565c0-5.12,3.413-8.533,8.533-8.533h17.067c5.12,0,8.533,3.413,8.533,8.533v25.6v25.6
				c0,5.12-3.413,8.533-8.533,8.533h-16.213C353.133,293.4,349.72,289.987,349.72,284.867z M127.853,284.867v-25.6
				c0-1.51-0.304-2.865-0.853-4.035v-21.565c0-5.12,3.413-8.533,8.533-8.533H152.6c5.12,0,8.533,3.413,8.533,8.533v25.6v25.6
				c0,5.12-3.413,8.533-8.533,8.533h-16.213C131.267,293.4,127.853,289.987,127.853,284.867z M109.933,267.8v17.067
				c0,14.507,11.093,25.6,25.6,25.6H152.6c14.507,0,25.6-11.093,25.6-25.6V267.8h153.6v17.067c0,14.507,11.093,25.6,25.6,25.6
				h17.067c14.507,0,25.6-11.093,25.6-25.6V267.8h76.8v145.067h-25.6c-13.653,0-25.6,11.093-25.6,25.6V447H84.333v-8.533
				c0-13.653-11.093-25.6-25.6-25.6h-25.6V267.8H109.933z M41.667,447c-4.267,0-8.533-3.413-8.533-8.533v-8.533h25.6
				c4.267,0,8.533,3.413,8.533,8.533V447H41.667z M468.333,447h-25.6v-8.533c0-4.267,3.413-8.533,8.533-8.533h25.6v8.533
				C476.867,442.733,473.453,447,468.333,447z"/>
			<path d="M109.933,429.933h290.133c5.12,0,8.533-3.413,8.533-8.533s-3.413-8.533-8.533-8.533H109.933
				c-5.12,0-8.533,3.413-8.533,8.533S104.813,429.933,109.933,429.933z"/>
			<path d="M109.933,395.8h290.133c5.12,0,8.533-3.413,8.533-8.533s-3.413-8.533-8.533-8.533H109.933
				c-5.12,0-8.533,3.413-8.533,8.533S104.813,395.8,109.933,395.8z"/>
		</g>
	</g>
</g>
</svg>
