<?xml version="1.0" encoding="iso-8859-1"?>
<!-- Uploaded to: SVG Repo, www.svgrepo.com, Generator: SVG Repo Mixer Tools -->
<svg fill="#000000" height="800px" width="800px" version="1.1" id="Layer_1" xmlns="http://www.w3.org/2000/svg" xmlns:xlink="http://www.w3.org/1999/xlink" 
	 viewBox="0 0 512 512" xml:space="preserve">
<g transform="translate(1 1)">
	<g>
		<g>
			<path d="M444.44,434.2L307.053,214.893c-21.504-34.247-33.34-73.697-34.824-113.493h8.37c2.56,0,5.12-0.853,6.827-3.413
				c1.707-1.707,2.56-4.267,1.707-6.827C284.867,68.973,235.373-1,203.8-1c-5.12,0-8.533,3.413-8.533,8.533v76.8H127v-76.8
				c0-2.56-1.707-5.973-3.413-6.827C121.027-1,117.613-1,115.053-0.147C88.6,11.8,58.733,41.667,58.733,84.333
				c0,36.693,13.653,60.587,43.52,77.653c51.2,29.013,93.013,68.267,122.88,115.2l78.985,125.963
				c0.423,1.291,1.119,2.394,2.046,3.263l19.21,30.635c0.436,1.468,1.219,2.701,2.284,3.642l28.035,44.709
				c6.827,11.947,17.92,20.48,30.72,23.893c5.12,0.853,9.387,1.707,13.653,1.707c9.387,0,17.92-2.56,25.6-6.827
				c11.947-6.827,20.48-17.92,23.893-30.72C452.973,459.8,451.267,446.147,444.44,434.2z M212.333,18.627
				c17.92,10.24,46.08,44.373,56.32,65.707h-5.12h-51.2V18.627z M432.493,469.187c-2.56,8.533-8.533,16.213-16.213,20.48
				s-17.067,5.973-25.6,3.413c-8.533-2.56-15.36-7.68-20.48-16.213l-21.455-34.133h25.722c5.12,0,8.533-3.413,8.533-8.533
				s-3.413-8.533-8.533-8.533h-36.45L327.29,408.6h21.577c5.12,0,8.533-3.413,8.533-8.533c0-5.12-3.413-8.533-8.533-8.533h-32.305
				L238.787,267.8c-30.72-48.64-75.093-90.453-128.853-120.32C86.04,133.827,75.8,115.053,75.8,84.333
				c0-28.16,16.213-49.493,34.133-62.293v70.827c0,5.12,3.413,8.533,8.533,8.533H203.8H255
				c1.707,43.52,14.507,85.333,37.547,122.027l136.533,220.16C433.347,451.267,435.053,460.653,432.493,469.187z"/>
			<path d="M229.4,118.467h-51.2c-5.12,0-8.533,3.413-8.533,8.533v34.133c0,5.12,3.413,8.533,8.533,8.533h51.2
				c5.12,0,8.533-3.413,8.533-8.533V127C237.933,121.88,234.52,118.467,229.4,118.467z M220.867,152.6h-34.133v-17.067h34.133V152.6
				z"/>
		</g>
	</g>
</g>
</svg>
