<?xml version="1.0" encoding="iso-8859-1"?>
<!-- Uploaded to: SVG Repo, www.svgrepo.com, Generator: SVG Repo Mixer Tools -->
<svg fill="#000000" height="800px" width="800px" version="1.1" id="Layer_1" xmlns="http://www.w3.org/2000/svg" xmlns:xlink="http://www.w3.org/1999/xlink" 
	 viewBox="0 0 503.322 503.322" xml:space="preserve">
<g transform="translate(1 1)">
	<g>
		<g>
			<path d="M398.186,354.797H103.136c-5.207,0-8.678,3.471-8.678,8.678c0,5.207,3.471,8.678,8.678,8.678h295.051
				c5.207,0,8.678-3.471,8.678-8.678S403.393,354.797,398.186,354.797z"/>
			<path d="M493.644,354.797h-17.356c-5.207,0-8.678-4.339-8.678-8.678v-30.373c0-43.143-12.642-84.478-34.623-119.564
				c-0.03-0.064-0.057-0.129-0.089-0.192c-0.256-0.396-0.524-0.785-0.782-1.18c-26.211-41.186-65.351-73.601-112.032-89.939v-2.603
				c0-13.885-11.281-25.166-25.166-25.166h-87.647c-14.753,0-26.034,11.281-26.034,25.166v3.471
				C94.458,135.244,33.712,218.553,33.712,311.407v34.712c0,5.207-4.339,8.678-8.678,8.678H7.678c-5.207,0-8.678,3.471-8.678,8.678
				v52.068c0,5.207,3.471,8.678,8.678,8.678h485.966c5.207,0,8.678-3.471,8.678-8.678v-52.068
				C502.322,358.268,498.851,354.797,493.644,354.797z M389.021,169.235c4.167,4.198,8.18,8.557,12.024,13.03
				c3.765,4.453,7.338,9.07,10.72,13.829l-69.118,23.327l23.316-69.948C374.143,155.475,381.844,162.092,389.021,169.235z
				 M135.244,149.997l23.43,70.292l-69.424-23.431C102.268,178.634,117.888,162.146,135.244,149.997z M484.966,406.864H16.356
				v-34.712h8.678c14.753,0,26.034-12.149,26.034-26.034v-34.712c0-36.241,9.949-70.845,27.499-100.755l91.389,30.463
				c0.868,0.868,1.736,0.868,2.603,0.868c2.603,0,4.339-0.868,6.942-2.603c1.736-1.736,2.603-5.207,1.736-8.678l-29.731-92.497
				c9.427-5.417,19.359-10.09,29.731-13.925v30.924c0,5.207,3.471,8.678,8.678,8.678c5.207,0,8.678-3.471,8.678-8.678v-43.39v-9.546
				c0-4.339,3.471-7.81,8.678-7.81h34.712v104.136c0,5.207,3.471,8.678,8.678,8.678s8.678-4.339,8.678-8.678V94.458h35.58
				c4.339,0,7.81,3.471,7.81,7.81v9.546v43.39c0,5.207,3.471,8.678,8.678,8.678c5.207,0,8.678-3.471,8.678-8.678V124.41
				c10.832,4.141,21.183,9.23,30.98,15.141l-30.113,91.151c-1.736,2.603-0.868,6.075,1.736,8.678
				c1.736,1.736,3.471,2.603,6.075,2.603c0.868,0,1.736,0,2.603,0l90.286-30.633c18.241,31.057,28.602,67.03,28.602,104.395v30.373
				c0,14.753,12.149,26.034,26.034,26.034h8.678V406.864z"/>
		</g>
	</g>
</g>
</svg>
