<?xml version="1.0" encoding="iso-8859-1"?>
<!-- Uploaded to: SVG Repo, www.svgrepo.com, Generator: SVG Repo Mixer Tools -->
<svg fill="#000000" height="800px" width="800px" version="1.1" id="Layer_1" xmlns="http://www.w3.org/2000/svg" xmlns:xlink="http://www.w3.org/1999/xlink" 
	 viewBox="0 0 503.607 503.607" xml:space="preserve">
<g transform="translate(1 1)">
	<g>
		<g>
			<path d="M473.229,196.404c-18.466-11.751-29.377-32.734-29.377-56.236v-17.626c0-30.216-21.823-56.236-50.361-59.593
				c-16.787-2.518-34.413,2.518-47.003,13.43c-10.469,9.771-17.438,22.447-19.495,36.092H174.43
				c-4.22-25.752-24.317-46.639-50.368-50.361c-16.787-1.679-33.574,3.357-46.164,14.269c-12.59,11.751-20.144,27.698-20.144,44.485
				v19.305c0,22.662-10.911,44.485-30.216,56.236C9.911,207.316-1,226.62-1,246.765v193.049h218.229h16.787h268.59V271.945v-16.787
				v-8.393C502.607,219.906,473.229,196.404,473.229,196.404z M267.59,255.158h-33.574v-8.393c0-20.144-10.911-38.61-29.377-50.361
				s-29.377-32.734-29.377-56.236v-10.911h151.082v10.911c0,22.662-11.751,44.485-30.216,56.236
				c-17.626,10.911-28.538,30.216-28.538,50.361V255.158z M217.229,423.027H15.787V246.765c0-14.269,7.554-27.698,20.984-35.252
				l0.839-0.839c22.662-15.108,36.931-41.967,36.931-70.505v-19.305c0-11.751,5.036-23.502,14.269-31.895
				c9.233-8.393,20.984-11.751,33.574-10.072c20.144,2.518,36.092,21.823,36.092,43.646v16.787
				c0,29.377,14.269,56.236,36.931,70.505l0.839,0.839c13.43,8.393,20.984,21.823,20.984,36.092v8.393V423.027z M485.82,288.732
				h-50.361c-5.036,0-8.393,3.357-8.393,8.393s3.357,8.393,8.393,8.393h50.361v16.787h-58.754c-5.036,0-8.393,3.357-8.393,8.393
				c0,5.036,3.357,8.393,8.393,8.393h58.754v16.787H376.705c-5.036,0-8.393,3.357-8.393,8.393s3.357,8.393,8.393,8.393H485.82
				v16.787h-50.361c-5.036,0-8.393,3.357-8.393,8.393c0,5.036,3.357,8.393,8.393,8.393h50.361v16.787H234.016V406.24h58.754
				c5.036,0,8.393-3.357,8.393-8.393c0-5.036-3.357-8.393-8.393-8.393h-58.754v-16.787h50.361c5.036,0,8.393-3.357,8.393-8.393
				s-3.357-8.393-8.393-8.393h-50.361v-16.787h100.721c5.036,0,8.393-3.357,8.393-8.393c0-5.036-3.357-8.393-8.393-8.393H234.016
				v-16.787h58.754c5.036,0,8.393-3.357,8.393-8.393s-3.357-8.393-8.393-8.393h-58.754v-16.787h33.574H485.82V288.732z
				 M485.82,255.158H284.377v-7.554c0-14.269,7.554-27.698,20.984-36.092l0.839-0.839c22.662-15.108,36.931-41.967,36.931-70.505
				v-10.911h41.967c5.036,0,8.393-3.357,8.393-8.393c0-5.036-3.357-8.393-8.393-8.393h-41.105
				c1.798-8.791,6.384-17.118,13.406-23.502c9.233-8.393,20.984-11.751,33.574-10.072c20.144,2.518,36.092,21.823,36.092,43.646
				v17.626c0,19.305,17.626,44.485,28.538,59.593c4.197,5.875,9.233,10.911,14.269,15.108c10.072,8.393,15.948,20.144,15.948,32.734
				L485.82,255.158L485.82,255.158z"/>
			<path d="M393.492,322.306h-25.18c-5.036,0-8.393,3.357-8.393,8.393c0,5.036,3.357,8.393,8.393,8.393h25.18
				c5.036,0,8.393-3.357,8.393-8.393C401.885,325.663,398.528,322.306,393.492,322.306z"/>
			<path d="M326.344,305.519h75.541c5.036,0,8.393-3.357,8.393-8.393s-3.357-8.393-8.393-8.393h-75.541
				c-5.036,0-8.393,3.357-8.393,8.393S321.308,305.519,326.344,305.519z"/>
			<path d="M317.951,397.847c0,5.036,3.357,8.393,8.393,8.393h75.541c5.036,0,8.393-3.357,8.393-8.393
				c0-5.036-3.357-8.393-8.393-8.393h-75.541C321.308,389.453,317.951,392.811,317.951,397.847z"/>
			<path d="M343.131,372.666c5.036,0,8.393-3.357,8.393-8.393s-3.357-8.393-8.393-8.393h-25.18c-5.036,0-8.393,3.357-8.393,8.393
				s3.357,8.393,8.393,8.393H343.131z"/>
		</g>
	</g>
</g>
</svg>
