<?xml version="1.0" encoding="iso-8859-1"?>
<!-- Uploaded to: SVG Repo, www.svgrepo.com, Generator: SVG Repo Mixer Tools -->
<svg fill="#000000" height="800px" width="800px" version="1.1" id="Layer_1" xmlns="http://www.w3.org/2000/svg" xmlns:xlink="http://www.w3.org/1999/xlink" 
	 viewBox="0 0 503.607 503.607" xml:space="preserve">
<g transform="translate(1 1)">
	<g>
		<path d="M494.213,99.721h-65.469h-0.839h-0.839V74.741c10.247-7.589,16.787-19.789,16.787-33.773
			C443.852,17.466,425.387-1,401.885-1c-23.502,0-41.967,18.466-41.967,41.967c0,13.985,6.54,26.185,16.787,33.773v24.981h-67.147h0
			H191.21h-0.839h-65.469V74.741c10.247-7.589,16.787-19.789,16.787-33.773C141.689,17.466,123.223-1,99.721-1
			S57.754,17.466,57.754,40.967c0,13.819,6.679,25.892,16.787,33.498v25.256h-2.518H7.393c-5.036,0-8.393,3.357-8.393,8.393v64.63
			v36.092c0,5.036,3.357,8.393,8.393,8.393h67.148v16.787h-2.518H7.393c-5.036,0-8.393,3.357-8.393,8.393v64.63v36.092
			c0,5.036,3.357,8.393,8.393,8.393h67.148v142.688c0,5.036,3.357,8.393,8.393,8.393h33.574c5.036,0,8.393-3.357,8.393-8.393
			v-33.574h251.803v33.574c0,5.036,3.357,8.393,8.393,8.393h33.574c5.036,0,8.393-3.357,8.393-8.393V351.525h19.305h47.843
			c2.518,0,4.616-0.839,6.085-2.308c1.469-1.469,2.308-3.567,2.308-6.085v-47.843V242.41c0-5.036-3.357-8.393-8.393-8.393h-65.469
			h-0.839h-0.839v-16.787h19.305h47.843c2.518,0,4.616-0.839,6.085-2.308c1.469-1.469,2.308-3.567,2.308-6.085v-47.843v-52.879
			C502.607,103.079,499.249,99.721,494.213,99.721z M485.82,157.636l-42.807,42.807h-24.341h-33.574h-36.931l83.934-83.934h53.718
			V157.636z M376.705,393.492H124.902v-41.967h83.934h119.187h48.682V393.492z M194.567,250.803h94.846l-83.934,83.934h-88.971
			h-5.875L194.567,250.803z M323.826,334.738H228.98l83.934-83.934h72.184h22.662L323.826,334.738z M309.557,234.016
			L309.557,234.016H191.21h-0.839h-65.469v-16.787h83.934h119.187h48.682v16.787H309.557z M312.915,116.508h72.184h22.662
			l-83.934,83.934H228.98L312.915,116.508z M401.885,15.787c14.269,0,25.18,10.911,25.18,25.18c0,8.174-3.585,15.241-9.326,19.791
			c-1.15,0.14-2.272,0.531-3.264,1.192c-8.393,5.036-16.787,5.036-25.18,0c-0.992-0.661-2.114-1.052-3.264-1.192
			c-5.741-4.55-9.326-11.617-9.326-19.791C376.705,26.698,387.616,15.787,401.885,15.787z M393.492,82.123
			c2.706,0.531,5.511,0.812,8.393,0.812s5.687-0.281,8.393-0.812v17.599h-16.787V82.123z M205.479,200.443h-88.971h-5.875
			l83.934-83.934h94.846L205.479,200.443z M99.721,15.787c14.269,0,25.18,10.911,25.18,25.18c0,8.174-3.585,15.241-9.326,19.791
			c-1.15,0.14-2.272,0.531-3.264,1.192c-8.393,5.036-16.787,5.036-25.18,0c-0.992-0.661-2.114-1.052-3.264-1.192
			c-5.741-4.55-9.326-11.617-9.326-19.791C74.541,26.698,86.292,15.787,99.721,15.787z M91.328,82.095
			c0.099,0.014,0.193,0.023,0.291,0.037c2.632,0.524,5.342,0.802,8.103,0.802c2.882,0,5.687-0.281,8.393-0.812v17.599H91.328V82.095
			z M15.787,116.508h36.092L15.787,152.6V116.508z M15.787,176.102l59.593-59.593h7.554h33.574h53.718l-83.934,83.934h-3.357H15.787
			V176.102z M91.328,217.229h16.787v16.787H91.328V217.229z M15.787,250.803h36.092l-36.092,36.092V250.803z M15.787,310.397
			l59.593-59.593h7.554h33.574h53.718l-83.934,83.934h-3.357H15.787V310.397z M108.115,485.82H91.328V351.525h16.787v50.361v50.361
			V485.82z M124.902,443.852v-33.574h251.803v33.574H124.902z M410.279,485.82h-16.787v-33.574v-50.361v-50.361h16.787V485.82z
			 M485.82,334.738h-19.305l19.305-19.305V334.738z M485.82,291.931l-42.807,42.807h-24.341h-33.574h-36.931l83.934-83.934h53.718
			V291.931z M410.279,234.016h-16.787v-16.787h16.787V234.016z M466.515,200.443l9.652-9.652l9.652-9.652v19.305H466.515z"/>
	</g>
</g>
</svg>
